# xmcd
#
# Track frame offsets: 
#        150
#        14660
#        25013
#        43200
#        57842
#        73483
#        84155
#        101033
#        112755
#        121107
#        132040
#        143298
#        161772
#        168235
#        179745
#
# Disc length: 2595 seconds
#
# Revision: 2
# Processed by: cddbd v1.5.1PL2 Copyright (c) Steve Scherf et al.
# Submitted via: ExactAudioCopy v0.95b4
#
DISCID=c40a210f
DTITLE=Nashville Superpickers, The - Pickin' On Christmas
DYEAR=1994
DGENRE=Seasonal: Christmas
TTITLE0=Twelve Days Of Christmas
TTITLE1=Sleigh Ride
TTITLE2=Jingle Bells
TTITLE3=Oh Come All Ye Faithful
TTITLE4=Silver Bells
TTITLE5=Let It Snow
TTITLE6=The Christmas Song
TTITLE7=Winter Wonderland
TTITLE8=Rudolph The Red Nosed Reindeer
TTITLE9=Santa Claus Is Coming To Town
TTITLE10=Frosty The Snowman
TTITLE11=White Christmas
TTITLE12=Here Comes Santa Claus
TTITLE13=Jingle Bell Rock
TTITLE14=We Wish You A Merry Christmas
EXTD=
EXTT0=
EXTT1=
EXTT2=
EXTT3=
EXTT4=
EXTT5=
EXTT6=
EXTT7=
EXTT8=
EXTT9=
EXTT10=
EXTT11=
EXTT12=
EXTT13=
EXTT14=
PLAYORDER=
